<svg xmlns="http://www.w3.org/2000/svg" width="121" height="137" version="1.2" xml:space="preserve"><rect width="80.57%" height="80.57%" x="11.755" y="13.31" fill="none" style="stroke-width:.805695"/><path fill="#fff" d="M97.441937 29.119223a5.7873098 5.7873098 0 0 0-6.308594 1.255273c-7.315713 7.310074-19.219863 7.315713-26.541217 0-11.835664-11.82358-31.079698-11.82358-42.909723 0a5.7720015 5.7720015 0 0 0-1.695988 4.092932v75.238252c0 3.19458 2.587088 5.78731 5.788115 5.78731 3.201028 0 5.78731-2.59273 5.78731-5.78731V83.354605c7.355999-5.77039 18.06369-5.27247 24.846034 1.505039 11.835664 11.823579 31.085337 11.823579 42.909718 0a5.7824755 5.7824755 0 0 0 1.695998-4.092127V34.467428a5.7913382 5.7913382 0 0 0-3.571653-5.347401z" class="currentLayer" style="stroke-width:.805695"/></svg>